<mxfile host="app.diagrams.net" agent="Mozilla/5.0 (Macintosh; Intel Mac OS X 10_15_7) AppleWebKit/537.36 (KHTML, like Gecko) Chrome/135.0.0.0 Safari/537.36" version="27.1.4">
  <diagram id="CxCAbdgytqC9yU9gBDsf" name="Page-1">
    <mxGraphModel grid="1" page="1" gridSize="10" guides="1" tooltips="1" connect="1" arrows="1" fold="1" pageScale="1" pageWidth="1920" pageHeight="1200" math="0" shadow="0">
      <root>
        <mxCell id="0" />
        <mxCell id="1" parent="0" />
        <mxCell id="dPON2WhHWiuS4glyOmXR-20" value="&lt;b&gt;Employee&lt;/b&gt;" style="whiteSpace=wrap;html=1;align=center;" vertex="1" parent="1">
          <mxGeometry x="680" y="440" width="100" height="40" as="geometry" />
        </mxCell>
        <mxCell id="dPON2WhHWiuS4glyOmXR-21" value="&lt;b&gt;Budget Officer&lt;/b&gt;" style="whiteSpace=wrap;html=1;align=center;" vertex="1" parent="1">
          <mxGeometry x="675" y="645" width="100" height="40" as="geometry" />
        </mxCell>
        <mxCell id="dPON2WhHWiuS4glyOmXR-23" value="&lt;b&gt;Post-Travel Expense Report&lt;/b&gt;" style="whiteSpace=wrap;html=1;align=center;" vertex="1" parent="1">
          <mxGeometry x="1160" y="440" width="100" height="40" as="geometry" />
        </mxCell>
        <mxCell id="dPON2WhHWiuS4glyOmXR-27" value="&lt;b&gt;Submits&lt;/b&gt;" style="shape=rhombus;perimeter=rhombusPerimeter;whiteSpace=wrap;html=1;align=center;" vertex="1" parent="1">
          <mxGeometry x="830" y="430" width="120" height="60" as="geometry" />
        </mxCell>
        <mxCell id="dPON2WhHWiuS4glyOmXR-40" value="Employee_ID" style="ellipse;whiteSpace=wrap;html=1;align=center;fontStyle=4;" vertex="1" parent="1">
          <mxGeometry x="560" y="375" width="100" height="50" as="geometry" />
        </mxCell>
        <mxCell id="dPON2WhHWiuS4glyOmXR-41" value="" style="endArrow=none;html=1;rounded=0;entryX=0;entryY=0;entryDx=0;entryDy=0;" edge="1" parent="1" source="dPON2WhHWiuS4glyOmXR-40" target="dPON2WhHWiuS4glyOmXR-20">
          <mxGeometry relative="1" as="geometry">
            <mxPoint x="730" y="400" as="sourcePoint" />
            <mxPoint x="890" y="400" as="targetPoint" />
          </mxGeometry>
        </mxCell>
        <mxCell id="dPON2WhHWiuS4glyOmXR-44" value="" style="endArrow=none;html=1;rounded=0;exitX=0.9;exitY=0.5;exitDx=0;exitDy=0;exitPerimeter=0;" edge="1" parent="1" target="dPON2WhHWiuS4glyOmXR-20">
          <mxGeometry relative="1" as="geometry">
            <mxPoint x="640" y="460" as="sourcePoint" />
            <mxPoint x="820" y="510" as="targetPoint" />
          </mxGeometry>
        </mxCell>
        <mxCell id="dPON2WhHWiuS4glyOmXR-45" value="Name" style="ellipse;whiteSpace=wrap;html=1;align=center;" vertex="1" parent="1">
          <mxGeometry x="560" y="440" width="100" height="40" as="geometry" />
        </mxCell>
        <mxCell id="dPON2WhHWiuS4glyOmXR-46" value="FName" style="ellipse;whiteSpace=wrap;html=1;align=center;" vertex="1" parent="1">
          <mxGeometry x="430" y="380" width="100" height="40" as="geometry" />
        </mxCell>
        <mxCell id="dPON2WhHWiuS4glyOmXR-47" value="Minit" style="ellipse;whiteSpace=wrap;html=1;align=center;" vertex="1" parent="1">
          <mxGeometry x="430" y="440" width="100" height="40" as="geometry" />
        </mxCell>
        <mxCell id="dPON2WhHWiuS4glyOmXR-48" value="LName" style="ellipse;whiteSpace=wrap;html=1;align=center;" vertex="1" parent="1">
          <mxGeometry x="430" y="490" width="100" height="40" as="geometry" />
        </mxCell>
        <mxCell id="dPON2WhHWiuS4glyOmXR-49" value="" style="endArrow=none;html=1;rounded=0;entryX=0;entryY=0.5;entryDx=0;entryDy=0;" edge="1" parent="1" source="dPON2WhHWiuS4glyOmXR-46" target="dPON2WhHWiuS4glyOmXR-45">
          <mxGeometry relative="1" as="geometry">
            <mxPoint x="590" y="500" as="sourcePoint" />
            <mxPoint x="750" y="500" as="targetPoint" />
          </mxGeometry>
        </mxCell>
        <mxCell id="dPON2WhHWiuS4glyOmXR-50" value="" style="endArrow=none;html=1;rounded=0;exitX=1;exitY=0.5;exitDx=0;exitDy=0;" edge="1" parent="1" source="dPON2WhHWiuS4glyOmXR-47" target="dPON2WhHWiuS4glyOmXR-45">
          <mxGeometry relative="1" as="geometry">
            <mxPoint x="511" y="428" as="sourcePoint" />
            <mxPoint x="550" y="490" as="targetPoint" />
            <Array as="points" />
          </mxGeometry>
        </mxCell>
        <mxCell id="dPON2WhHWiuS4glyOmXR-51" value="" style="endArrow=none;html=1;rounded=0;entryX=0;entryY=0.5;entryDx=0;entryDy=0;exitX=1;exitY=0.5;exitDx=0;exitDy=0;" edge="1" parent="1" source="dPON2WhHWiuS4glyOmXR-48" target="dPON2WhHWiuS4glyOmXR-45">
          <mxGeometry relative="1" as="geometry">
            <mxPoint x="540" y="518" as="sourcePoint" />
            <mxPoint x="589" y="560" as="targetPoint" />
          </mxGeometry>
        </mxCell>
        <mxCell id="dPON2WhHWiuS4glyOmXR-52" value="Email" style="ellipse;whiteSpace=wrap;html=1;align=center;" vertex="1" parent="1">
          <mxGeometry x="560" y="490" width="100" height="40" as="geometry" />
        </mxCell>
        <mxCell id="dPON2WhHWiuS4glyOmXR-54" value="Workstation address" style="ellipse;whiteSpace=wrap;html=1;align=center;" vertex="1" parent="1">
          <mxGeometry x="560" y="540" width="100" height="40" as="geometry" />
        </mxCell>
        <mxCell id="dPON2WhHWiuS4glyOmXR-56" value="" style="endArrow=none;html=1;rounded=0;exitX=1;exitY=0.5;exitDx=0;exitDy=0;entryX=0;entryY=0.75;entryDx=0;entryDy=0;" edge="1" parent="1" source="dPON2WhHWiuS4glyOmXR-52" target="dPON2WhHWiuS4glyOmXR-20">
          <mxGeometry relative="1" as="geometry">
            <mxPoint x="580" y="540" as="sourcePoint" />
            <mxPoint x="740" y="540" as="targetPoint" />
          </mxGeometry>
        </mxCell>
        <mxCell id="dPON2WhHWiuS4glyOmXR-57" value="" style="endArrow=none;html=1;rounded=0;exitX=1;exitY=0.5;exitDx=0;exitDy=0;entryX=0.13;entryY=0.975;entryDx=0;entryDy=0;entryPerimeter=0;" edge="1" parent="1" source="dPON2WhHWiuS4glyOmXR-54" target="dPON2WhHWiuS4glyOmXR-20">
          <mxGeometry relative="1" as="geometry">
            <mxPoint x="550" y="579" as="sourcePoint" />
            <mxPoint x="710" y="579" as="targetPoint" />
          </mxGeometry>
        </mxCell>
        <mxCell id="dPON2WhHWiuS4glyOmXR-59" value="" style="endArrow=none;html=1;rounded=0;entryX=0;entryY=0.5;entryDx=0;entryDy=0;" edge="1" parent="1" target="dPON2WhHWiuS4glyOmXR-61">
          <mxGeometry relative="1" as="geometry">
            <mxPoint x="1260" y="460" as="sourcePoint" />
            <mxPoint x="1590" y="470" as="targetPoint" />
          </mxGeometry>
        </mxCell>
        <mxCell id="dPON2WhHWiuS4glyOmXR-61" value="Report_ID" style="ellipse;whiteSpace=wrap;html=1;align=center;fontStyle=4;" vertex="1" parent="1">
          <mxGeometry x="1590" y="330" width="100" height="40" as="geometry" />
        </mxCell>
        <mxCell id="dPON2WhHWiuS4glyOmXR-64" value="Start_Date" style="ellipse;whiteSpace=wrap;html=1;align=center;" vertex="1" parent="1">
          <mxGeometry x="1590" y="380" width="100" height="40" as="geometry" />
        </mxCell>
        <mxCell id="dPON2WhHWiuS4glyOmXR-66" value="End_Date" style="ellipse;whiteSpace=wrap;html=1;align=center;" vertex="1" parent="1">
          <mxGeometry x="1590" y="434.93000000000006" width="100" height="40" as="geometry" />
        </mxCell>
        <mxCell id="dPON2WhHWiuS4glyOmXR-67" value="Destination" style="ellipse;whiteSpace=wrap;html=1;align=center;" vertex="1" parent="1">
          <mxGeometry x="1590" y="484.93000000000006" width="100" height="40" as="geometry" />
        </mxCell>
        <mxCell id="dPON2WhHWiuS4glyOmXR-68" value="Description" style="ellipse;whiteSpace=wrap;html=1;align=center;" vertex="1" parent="1">
          <mxGeometry x="1590" y="534.9300000000001" width="100" height="40" as="geometry" />
        </mxCell>
        <mxCell id="dPON2WhHWiuS4glyOmXR-73" value="" style="endArrow=none;html=1;rounded=0;entryX=0;entryY=0.5;entryDx=0;entryDy=0;" edge="1" parent="1" target="dPON2WhHWiuS4glyOmXR-64">
          <mxGeometry relative="1" as="geometry">
            <mxPoint x="1260" y="460" as="sourcePoint" />
            <mxPoint x="1460" y="459.5" as="targetPoint" />
          </mxGeometry>
        </mxCell>
        <mxCell id="dPON2WhHWiuS4glyOmXR-75" value="" style="endArrow=none;html=1;rounded=0;exitX=1;exitY=0.5;exitDx=0;exitDy=0;entryX=0;entryY=0.5;entryDx=0;entryDy=0;" edge="1" parent="1" source="dPON2WhHWiuS4glyOmXR-23" target="dPON2WhHWiuS4glyOmXR-66">
          <mxGeometry relative="1" as="geometry">
            <mxPoint x="1150" y="549.5" as="sourcePoint" />
            <mxPoint x="1310" y="549.5" as="targetPoint" />
          </mxGeometry>
        </mxCell>
        <mxCell id="dPON2WhHWiuS4glyOmXR-76" value="" style="endArrow=none;html=1;rounded=0;exitX=1;exitY=0.5;exitDx=0;exitDy=0;entryX=0;entryY=0.5;entryDx=0;entryDy=0;" edge="1" parent="1" source="dPON2WhHWiuS4glyOmXR-23" target="dPON2WhHWiuS4glyOmXR-67">
          <mxGeometry relative="1" as="geometry">
            <mxPoint x="1090" y="539" as="sourcePoint" />
            <mxPoint x="1250" y="539" as="targetPoint" />
          </mxGeometry>
        </mxCell>
        <mxCell id="dPON2WhHWiuS4glyOmXR-77" value="" style="endArrow=none;html=1;rounded=0;exitX=1;exitY=0.5;exitDx=0;exitDy=0;entryX=0;entryY=0.5;entryDx=0;entryDy=0;" edge="1" parent="1" source="dPON2WhHWiuS4glyOmXR-23" target="dPON2WhHWiuS4glyOmXR-68">
          <mxGeometry relative="1" as="geometry">
            <mxPoint x="1100" y="520" as="sourcePoint" />
            <mxPoint x="1260" y="520" as="targetPoint" />
          </mxGeometry>
        </mxCell>
        <mxCell id="dPON2WhHWiuS4glyOmXR-150" value="BudgetOfficer_ID" style="ellipse;whiteSpace=wrap;html=1;align=center;fontStyle=4;" vertex="1" parent="1">
          <mxGeometry x="565" y="715" width="100" height="40" as="geometry" />
        </mxCell>
        <mxCell id="dPON2WhHWiuS4glyOmXR-152" value="Approval_Auth" style="ellipse;whiteSpace=wrap;html=1;align=center;" vertex="1" parent="1">
          <mxGeometry x="775" y="755.07" width="120" height="40" as="geometry" />
        </mxCell>
        <mxCell id="pXS2U-On0aij9POO2QEW-3" value="&lt;b&gt;d&lt;/b&gt;" style="ellipse;whiteSpace=wrap;html=1;aspect=fixed;" vertex="1" parent="1">
          <mxGeometry x="730" y="520" width="25" height="25" as="geometry" />
        </mxCell>
        <mxCell id="pXS2U-On0aij9POO2QEW-9" value="" style="endArrow=none;html=1;rounded=0;exitX=0.5;exitY=1;exitDx=0;exitDy=0;entryX=0.5;entryY=0;entryDx=0;entryDy=0;" edge="1" parent="1" source="pXS2U-On0aij9POO2QEW-3" target="dPON2WhHWiuS4glyOmXR-21">
          <mxGeometry relative="1" as="geometry">
            <mxPoint x="1209" y="399" as="sourcePoint" />
            <mxPoint x="800" y="560" as="targetPoint" />
          </mxGeometry>
        </mxCell>
        <mxCell id="pXS2U-On0aij9POO2QEW-10" value="" style="resizable=0;html=1;whiteSpace=wrap;align=left;verticalAlign=bottom;" connectable="0" vertex="1" parent="pXS2U-On0aij9POO2QEW-9">
          <mxGeometry x="-1" relative="1" as="geometry" />
        </mxCell>
        <mxCell id="pXS2U-On0aij9POO2QEW-11" value="N" style="resizable=0;html=1;whiteSpace=wrap;align=right;verticalAlign=bottom;" connectable="0" vertex="1" parent="pXS2U-On0aij9POO2QEW-9">
          <mxGeometry x="1" relative="1" as="geometry" />
        </mxCell>
        <mxCell id="pXS2U-On0aij9POO2QEW-13" value="&lt;font style=&quot;font-size: 14px;&quot;&gt;U&lt;/font&gt;" style="text;html=1;align=center;verticalAlign=middle;whiteSpace=wrap;rounded=0;rotation=10;" vertex="1" parent="1">
          <mxGeometry x="695" y="550" width="80" height="70" as="geometry" />
        </mxCell>
        <mxCell id="BCc5iCwTHxENzhBw9Z0v-14" value="" style="endArrow=none;html=1;rounded=0;exitX=1;exitY=0.5;exitDx=0;exitDy=0;entryX=0;entryY=1;entryDx=0;entryDy=0;" edge="1" parent="1" target="dPON2WhHWiuS4glyOmXR-21">
          <mxGeometry relative="1" as="geometry">
            <mxPoint x="618.5" y="715" as="sourcePoint" />
            <mxPoint x="651.5" y="634" as="targetPoint" />
          </mxGeometry>
        </mxCell>
        <mxCell id="BCc5iCwTHxENzhBw9Z0v-16" value="" style="endArrow=none;html=1;rounded=0;exitX=0.5;exitY=0;exitDx=0;exitDy=0;entryX=0.82;entryY=1.025;entryDx=0;entryDy=0;entryPerimeter=0;" edge="1" parent="1" source="dPON2WhHWiuS4glyOmXR-152" target="dPON2WhHWiuS4glyOmXR-21">
          <mxGeometry relative="1" as="geometry">
            <mxPoint x="638.5" y="735" as="sourcePoint" />
            <mxPoint x="695" y="705" as="targetPoint" />
          </mxGeometry>
        </mxCell>
        <mxCell id="BCc5iCwTHxENzhBw9Z0v-44" value="" style="resizable=0;html=1;whiteSpace=wrap;align=right;verticalAlign=bottom;" connectable="0" vertex="1" parent="1">
          <mxGeometry x="579.7068278348047" y="640.1372961896129" as="geometry">
            <mxPoint x="5" y="9" as="offset" />
          </mxGeometry>
        </mxCell>
        <mxCell id="BCc5iCwTHxENzhBw9Z0v-50" value="" style="endArrow=none;html=1;rounded=0;exitX=1;exitY=0.5;exitDx=0;exitDy=0;" edge="1" parent="1" source="dPON2WhHWiuS4glyOmXR-20" target="dPON2WhHWiuS4glyOmXR-27">
          <mxGeometry relative="1" as="geometry">
            <mxPoint x="870" y="560" as="sourcePoint" />
            <mxPoint x="1030" y="560" as="targetPoint" />
          </mxGeometry>
        </mxCell>
        <mxCell id="BCc5iCwTHxENzhBw9Z0v-51" value="1" style="resizable=0;html=1;whiteSpace=wrap;align=right;verticalAlign=bottom;" connectable="0" vertex="1" parent="BCc5iCwTHxENzhBw9Z0v-50">
          <mxGeometry x="1" relative="1" as="geometry">
            <mxPoint x="-1" y="-5" as="offset" />
          </mxGeometry>
        </mxCell>
        <mxCell id="BCc5iCwTHxENzhBw9Z0v-165" value="" style="endArrow=none;html=1;rounded=0;entryX=0.5;entryY=0;entryDx=0;entryDy=0;" edge="1" parent="1">
          <mxGeometry relative="1" as="geometry">
            <mxPoint x="738" y="685" as="sourcePoint" />
            <mxPoint x="695" y="775.1400000000001" as="targetPoint" />
          </mxGeometry>
        </mxCell>
        <mxCell id="BCc5iCwTHxENzhBw9Z0v-172" value="Payment_Date" style="ellipse;whiteSpace=wrap;html=1;align=center;" vertex="1" parent="1">
          <mxGeometry x="635" y="775.14" width="120" height="40" as="geometry" />
        </mxCell>
        <mxCell id="BCc5iCwTHxENzhBw9Z0v-184" value="Total_Amount" style="ellipse;whiteSpace=wrap;html=1;align=center;dashed=1;" vertex="1" parent="1">
          <mxGeometry x="1250" y="560" width="100" height="40" as="geometry" />
        </mxCell>
        <mxCell id="BCc5iCwTHxENzhBw9Z0v-186" value="" style="endArrow=none;html=1;rounded=0;exitX=0.75;exitY=1;exitDx=0;exitDy=0;entryX=0.5;entryY=0;entryDx=0;entryDy=0;" edge="1" parent="1" source="dPON2WhHWiuS4glyOmXR-23" target="BCc5iCwTHxENzhBw9Z0v-184">
          <mxGeometry relative="1" as="geometry">
            <mxPoint x="835" y="970" as="sourcePoint" />
            <mxPoint x="845" y="1023" as="targetPoint" />
          </mxGeometry>
        </mxCell>
        <mxCell id="vq4TZRUGFPDI1EXtJv9L-1" value="" style="endArrow=none;html=1;rounded=0;exitX=0.5;exitY=1;exitDx=0;exitDy=0;entryX=0.5;entryY=0;entryDx=0;entryDy=0;" edge="1" parent="1" source="dPON2WhHWiuS4glyOmXR-20" target="pXS2U-On0aij9POO2QEW-3">
          <mxGeometry relative="1" as="geometry">
            <mxPoint x="1100" y="490" as="sourcePoint" />
            <mxPoint x="1260" y="490" as="targetPoint" />
          </mxGeometry>
        </mxCell>
        <mxCell id="vq4TZRUGFPDI1EXtJv9L-5" value="Amount" style="ellipse;whiteSpace=wrap;html=1;align=center;" vertex="1" parent="1">
          <mxGeometry x="1590" y="280" width="100" height="40" as="geometry" />
        </mxCell>
        <mxCell id="vq4TZRUGFPDI1EXtJv9L-29" value="" style="endArrow=none;html=1;rounded=0;entryX=0.013;entryY=0.347;entryDx=0;entryDy=0;exitX=1;exitY=0.5;exitDx=0;exitDy=0;entryPerimeter=0;" edge="1" parent="1" source="dPON2WhHWiuS4glyOmXR-23" target="RIepBf3kkHJ-XKtAT26h-1">
          <mxGeometry relative="1" as="geometry">
            <mxPoint x="1560" y="700" as="sourcePoint" />
            <mxPoint x="1905" y="103" as="targetPoint" />
          </mxGeometry>
        </mxCell>
        <mxCell id="vq4TZRUGFPDI1EXtJv9L-32" value="Vendor_Name" style="ellipse;whiteSpace=wrap;html=1;align=center;" vertex="1" parent="1">
          <mxGeometry x="1590" y="180.00000000000006" width="100" height="40" as="geometry" />
        </mxCell>
        <mxCell id="vq4TZRUGFPDI1EXtJv9L-50" value="Insurance Coverage" style="ellipse;whiteSpace=wrap;html=1;align=center;" vertex="1" parent="1">
          <mxGeometry x="1580" y="589.9999999999999" width="100" height="40" as="geometry" />
        </mxCell>
        <mxCell id="vq4TZRUGFPDI1EXtJv9L-53" value="" style="endArrow=none;html=1;rounded=0;entryX=0;entryY=0.5;entryDx=0;entryDy=0;" edge="1" parent="1" target="vq4TZRUGFPDI1EXtJv9L-50">
          <mxGeometry relative="1" as="geometry">
            <mxPoint x="1260" y="460" as="sourcePoint" />
            <mxPoint x="1590" y="565" as="targetPoint" />
          </mxGeometry>
        </mxCell>
        <mxCell id="vq4TZRUGFPDI1EXtJv9L-56" value="" style="endArrow=none;html=1;rounded=0;entryX=0;entryY=0.5;entryDx=0;entryDy=0;" edge="1" parent="1" target="vq4TZRUGFPDI1EXtJv9L-32">
          <mxGeometry relative="1" as="geometry">
            <mxPoint x="1260" y="460" as="sourcePoint" />
            <mxPoint x="1465" y="230" as="targetPoint" />
          </mxGeometry>
        </mxCell>
        <mxCell id="vq4TZRUGFPDI1EXtJv9L-61" value="ReceiptFile" style="ellipse;shape=doubleEllipse;margin=3;whiteSpace=wrap;html=1;align=center;" vertex="1" parent="1">
          <mxGeometry x="1590" y="230" width="100" height="40" as="geometry" />
        </mxCell>
        <mxCell id="vq4TZRUGFPDI1EXtJv9L-64" value="" style="endArrow=none;html=1;rounded=0;entryX=0;entryY=0.5;entryDx=0;entryDy=0;" edge="1" parent="1" target="vq4TZRUGFPDI1EXtJv9L-5">
          <mxGeometry relative="1" as="geometry">
            <mxPoint x="1260" y="460" as="sourcePoint" />
            <mxPoint x="1590" y="310" as="targetPoint" />
          </mxGeometry>
        </mxCell>
        <mxCell id="vq4TZRUGFPDI1EXtJv9L-79" value="" style="endArrow=none;html=1;rounded=0;entryX=0;entryY=0.5;entryDx=0;entryDy=0;" edge="1" parent="1" target="vq4TZRUGFPDI1EXtJv9L-61">
          <mxGeometry relative="1" as="geometry">
            <mxPoint x="1260" y="460" as="sourcePoint" />
            <mxPoint x="1590" y="260" as="targetPoint" />
          </mxGeometry>
        </mxCell>
        <mxCell id="vq4TZRUGFPDI1EXtJv9L-101" value="&lt;b&gt;Reimbursed by&lt;/b&gt;" style="shape=rhombus;perimeter=rhombusPerimeter;whiteSpace=wrap;html=1;align=center;" vertex="1" parent="1">
          <mxGeometry x="960" y="520" width="120" height="60" as="geometry" />
        </mxCell>
        <mxCell id="vq4TZRUGFPDI1EXtJv9L-104" value="" style="endArrow=none;html=1;rounded=0;entryX=1;entryY=0.25;entryDx=0;entryDy=0;exitX=0.5;exitY=1;exitDx=0;exitDy=0;" edge="1" parent="1" source="vq4TZRUGFPDI1EXtJv9L-101" target="dPON2WhHWiuS4glyOmXR-21">
          <mxGeometry relative="1" as="geometry">
            <mxPoint x="865" y="590" as="sourcePoint" />
            <mxPoint x="865" y="640" as="targetPoint" />
            <Array as="points" />
          </mxGeometry>
        </mxCell>
        <mxCell id="vq4TZRUGFPDI1EXtJv9L-105" value="1" style="resizable=0;html=1;whiteSpace=wrap;align=right;verticalAlign=bottom;" connectable="0" vertex="1" parent="vq4TZRUGFPDI1EXtJv9L-104">
          <mxGeometry x="1" relative="1" as="geometry">
            <mxPoint x="255" y="-55" as="offset" />
          </mxGeometry>
        </mxCell>
        <mxCell id="RIepBf3kkHJ-XKtAT26h-1" value="Hotel_name" style="ellipse;whiteSpace=wrap;html=1;align=center;" vertex="1" parent="1">
          <mxGeometry x="1580" y="644.9999999999999" width="100" height="40" as="geometry" />
        </mxCell>
        <mxCell id="RIepBf3kkHJ-XKtAT26h-2" value="Meal_type" style="ellipse;whiteSpace=wrap;html=1;align=center;" vertex="1" parent="1">
          <mxGeometry x="1580" y="699.9999999999999" width="100" height="40" as="geometry" />
        </mxCell>
        <mxCell id="RIepBf3kkHJ-XKtAT26h-3" value="" style="endArrow=none;html=1;rounded=0;entryX=0;entryY=0.5;entryDx=0;entryDy=0;" edge="1" parent="1" target="RIepBf3kkHJ-XKtAT26h-2">
          <mxGeometry relative="1" as="geometry">
            <mxPoint x="1260" y="460" as="sourcePoint" />
            <mxPoint x="1591" y="669" as="targetPoint" />
          </mxGeometry>
        </mxCell>
        <mxCell id="RIepBf3kkHJ-XKtAT26h-4" value="Transportation&lt;div&gt;Type&lt;/div&gt;" style="ellipse;whiteSpace=wrap;html=1;align=center;" vertex="1" parent="1">
          <mxGeometry x="1450" y="700.0699999999999" width="100" height="40" as="geometry" />
        </mxCell>
        <mxCell id="RIepBf3kkHJ-XKtAT26h-5" value="" style="endArrow=none;html=1;rounded=0;entryX=0.5;entryY=0;entryDx=0;entryDy=0;exitX=1;exitY=0.5;exitDx=0;exitDy=0;" edge="1" parent="1" source="dPON2WhHWiuS4glyOmXR-23" target="RIepBf3kkHJ-XKtAT26h-4">
          <mxGeometry relative="1" as="geometry">
            <mxPoint x="1270" y="470" as="sourcePoint" />
            <mxPoint x="1590" y="730" as="targetPoint" />
          </mxGeometry>
        </mxCell>
        <mxCell id="RIepBf3kkHJ-XKtAT26h-16" value="" style="shape=link;html=1;rounded=0;entryX=0;entryY=0.5;entryDx=0;entryDy=0;exitX=1;exitY=0.5;exitDx=0;exitDy=0;" edge="1" parent="1" source="dPON2WhHWiuS4glyOmXR-27" target="dPON2WhHWiuS4glyOmXR-23">
          <mxGeometry relative="1" as="geometry">
            <mxPoint x="960" y="400" as="sourcePoint" />
            <mxPoint x="1170" y="380" as="targetPoint" />
          </mxGeometry>
        </mxCell>
        <mxCell id="RIepBf3kkHJ-XKtAT26h-17" value="1" style="resizable=0;html=1;whiteSpace=wrap;align=right;verticalAlign=bottom;" connectable="0" vertex="1" parent="RIepBf3kkHJ-XKtAT26h-16">
          <mxGeometry x="1" relative="1" as="geometry">
            <mxPoint x="-201" y="-5" as="offset" />
          </mxGeometry>
        </mxCell>
        <mxCell id="RIepBf3kkHJ-XKtAT26h-18" value="" style="shape=link;html=1;rounded=0;entryX=0;entryY=0.75;entryDx=0;entryDy=0;exitX=0.5;exitY=0;exitDx=0;exitDy=0;" edge="1" parent="1" source="vq4TZRUGFPDI1EXtJv9L-101" target="dPON2WhHWiuS4glyOmXR-23">
          <mxGeometry relative="1" as="geometry">
            <mxPoint x="940" y="480" as="sourcePoint" />
            <mxPoint x="1100" y="480" as="targetPoint" />
          </mxGeometry>
        </mxCell>
        <mxCell id="RIepBf3kkHJ-XKtAT26h-19" value="N" style="resizable=0;html=1;whiteSpace=wrap;align=right;verticalAlign=bottom;" connectable="0" vertex="1" parent="RIepBf3kkHJ-XKtAT26h-18">
          <mxGeometry x="1" relative="1" as="geometry">
            <mxPoint x="-100" y="60" as="offset" />
          </mxGeometry>
        </mxCell>
        <mxCell id="NvDPpDEN1nPEEL75tQNh-1" value="&lt;b&gt;&lt;font style=&quot;font-size: 18px;&quot;&gt;Travel reimbursement system EER diagram&lt;/font&gt;&lt;/b&gt;" style="text;html=1;align=left;verticalAlign=middle;resizable=0;points=[];autosize=1;strokeColor=none;fillColor=none;" vertex="1" parent="1">
          <mxGeometry x="50" y="50" width="390" height="40" as="geometry" />
        </mxCell>
        <mxCell id="5phi50GpHfNUAtCO2gMV-1" value="&lt;b&gt;Reimbursement&lt;/b&gt;" style="whiteSpace=wrap;html=1;align=center;" vertex="1" parent="1">
          <mxGeometry x="190" y="530.07" width="100" height="40" as="geometry" />
        </mxCell>
        <mxCell id="5phi50GpHfNUAtCO2gMV-2" value="&lt;b&gt;Processed by&lt;/b&gt;" style="shape=rhombus;perimeter=rhombusPerimeter;whiteSpace=wrap;html=1;align=center;" vertex="1" parent="1">
          <mxGeometry x="330" y="580" width="120" height="60" as="geometry" />
        </mxCell>
        <mxCell id="5phi50GpHfNUAtCO2gMV-3" value="&lt;b&gt;Reimbursed to&lt;/b&gt;" style="shape=rhombus;perimeter=rhombusPerimeter;whiteSpace=wrap;html=1;align=center;" vertex="1" parent="1">
          <mxGeometry x="420" y="200" width="120" height="60" as="geometry" />
        </mxCell>
        <mxCell id="5phi50GpHfNUAtCO2gMV-4" value="" style="endArrow=none;html=1;rounded=0;entryX=0;entryY=0.5;entryDx=0;entryDy=0;exitX=1;exitY=0.5;exitDx=0;exitDy=0;" edge="1" parent="1" source="5phi50GpHfNUAtCO2gMV-2" target="dPON2WhHWiuS4glyOmXR-21">
          <mxGeometry relative="1" as="geometry">
            <mxPoint x="235" y="680" as="sourcePoint" />
            <mxPoint x="395" y="680" as="targetPoint" />
          </mxGeometry>
        </mxCell>
        <mxCell id="5phi50GpHfNUAtCO2gMV-7" value="1" style="resizable=0;html=1;whiteSpace=wrap;align=right;verticalAlign=bottom;" connectable="0" vertex="1" parent="1">
          <mxGeometry x="560.0016407215362" y="610.0042538917694" as="geometry">
            <mxPoint x="-97" y="4" as="offset" />
          </mxGeometry>
        </mxCell>
        <mxCell id="5phi50GpHfNUAtCO2gMV-9" value="" style="shape=link;html=1;rounded=0;entryX=1;entryY=0.5;entryDx=0;entryDy=0;exitX=0;exitY=0.5;exitDx=0;exitDy=0;" edge="1" parent="1" source="5phi50GpHfNUAtCO2gMV-2" target="5phi50GpHfNUAtCO2gMV-1">
          <mxGeometry relative="1" as="geometry">
            <mxPoint x="160" y="660.0699999999999" as="sourcePoint" />
            <mxPoint x="320" y="660.0699999999999" as="targetPoint" />
          </mxGeometry>
        </mxCell>
        <mxCell id="5phi50GpHfNUAtCO2gMV-10" value="N" style="resizable=0;html=1;whiteSpace=wrap;align=right;verticalAlign=bottom;" connectable="0" vertex="1" parent="5phi50GpHfNUAtCO2gMV-9">
          <mxGeometry x="1" relative="1" as="geometry">
            <mxPoint x="50" y="50" as="offset" />
          </mxGeometry>
        </mxCell>
        <mxCell id="5phi50GpHfNUAtCO2gMV-11" value="Amount" style="ellipse;whiteSpace=wrap;html=1;align=center;" vertex="1" parent="1">
          <mxGeometry x="70" y="579.9999999999999" width="100" height="40" as="geometry" />
        </mxCell>
        <mxCell id="5phi50GpHfNUAtCO2gMV-12" value="Date" style="ellipse;whiteSpace=wrap;html=1;align=center;" vertex="1" parent="1">
          <mxGeometry x="180" y="599.9999999999999" width="100" height="40" as="geometry" />
        </mxCell>
        <mxCell id="5phi50GpHfNUAtCO2gMV-13" value="&lt;u&gt;Re_ID&lt;/u&gt;" style="ellipse;whiteSpace=wrap;html=1;align=center;" vertex="1" parent="1">
          <mxGeometry x="80" y="479.99999999999994" width="100" height="40" as="geometry" />
        </mxCell>
        <mxCell id="5phi50GpHfNUAtCO2gMV-14" value="" style="endArrow=none;html=1;rounded=0;entryX=0.5;entryY=0;entryDx=0;entryDy=0;" edge="1" parent="1" target="5phi50GpHfNUAtCO2gMV-12">
          <mxGeometry relative="1" as="geometry">
            <mxPoint x="243" y="569.9300000000001" as="sourcePoint" />
            <mxPoint x="200" y="660.0700000000002" as="targetPoint" />
          </mxGeometry>
        </mxCell>
        <mxCell id="5phi50GpHfNUAtCO2gMV-15" value="" style="endArrow=none;html=1;rounded=0;entryX=1;entryY=0;entryDx=0;entryDy=0;exitX=0;exitY=1;exitDx=0;exitDy=0;" edge="1" parent="1" source="5phi50GpHfNUAtCO2gMV-1" target="5phi50GpHfNUAtCO2gMV-11">
          <mxGeometry relative="1" as="geometry">
            <mxPoint x="253" y="579.9300000000001" as="sourcePoint" />
            <mxPoint x="240" y="610" as="targetPoint" />
          </mxGeometry>
        </mxCell>
        <mxCell id="5phi50GpHfNUAtCO2gMV-16" value="" style="endArrow=none;html=1;rounded=0;entryX=0.5;entryY=1;entryDx=0;entryDy=0;exitX=0;exitY=0.5;exitDx=0;exitDy=0;" edge="1" parent="1" source="5phi50GpHfNUAtCO2gMV-1" target="5phi50GpHfNUAtCO2gMV-13">
          <mxGeometry relative="1" as="geometry">
            <mxPoint x="263" y="589.9300000000001" as="sourcePoint" />
            <mxPoint x="250" y="620" as="targetPoint" />
          </mxGeometry>
        </mxCell>
        <mxCell id="5phi50GpHfNUAtCO2gMV-19" value="" style="shape=link;html=1;rounded=0;entryX=0;entryY=0.5;entryDx=0;entryDy=0;exitX=0.5;exitY=0;exitDx=0;exitDy=0;" edge="1" parent="1" source="5phi50GpHfNUAtCO2gMV-1" target="5phi50GpHfNUAtCO2gMV-3">
          <mxGeometry relative="1" as="geometry">
            <mxPoint x="210" y="470" as="sourcePoint" />
            <mxPoint x="360" y="499.40999999999997" as="targetPoint" />
          </mxGeometry>
        </mxCell>
        <mxCell id="5phi50GpHfNUAtCO2gMV-20" value="1" style="resizable=0;html=1;whiteSpace=wrap;align=right;verticalAlign=bottom;" connectable="0" vertex="1" parent="5phi50GpHfNUAtCO2gMV-19">
          <mxGeometry x="1" relative="1" as="geometry">
            <mxPoint x="-20" y="10" as="offset" />
          </mxGeometry>
        </mxCell>
        <mxCell id="5phi50GpHfNUAtCO2gMV-23" value="" style="endArrow=none;html=1;rounded=0;entryX=0.25;entryY=0;entryDx=0;entryDy=0;exitX=1;exitY=0.5;exitDx=0;exitDy=0;" edge="1" parent="1" source="5phi50GpHfNUAtCO2gMV-3" target="dPON2WhHWiuS4glyOmXR-20">
          <mxGeometry relative="1" as="geometry">
            <mxPoint x="470" y="299.41" as="sourcePoint" />
            <mxPoint x="630" y="299.41" as="targetPoint" />
          </mxGeometry>
        </mxCell>
        <mxCell id="5phi50GpHfNUAtCO2gMV-24" value="1" style="resizable=0;html=1;whiteSpace=wrap;align=right;verticalAlign=bottom;" connectable="0" vertex="1" parent="1">
          <mxGeometry x="409.7400311349993" y="250.4333825406709" as="geometry">
            <mxPoint x="144" y="-11" as="offset" />
          </mxGeometry>
        </mxCell>
      </root>
    </mxGraphModel>
  </diagram>
</mxfile>
